<svg width="256" height="247" viewBox="0 0 256 247" fill="none" xmlns="http://www.w3.org/2000/svg">
<g clip-path="url(#clip0_2_229)">
<path d="M118.296 242.361L124.667 242.36L127.698 217.81L118.295 217.81L118.296 242.361Z" fill="#FFB6B6"/>
<path d="M140.123 242.216C140.321 242.55 140.426 243.627 140.426 244.015C140.426 245.209 139.458 246.176 138.264 246.176H118.535C117.72 246.176 117.06 245.516 117.06 244.702V243.881C117.06 243.881 116.084 241.415 118.093 238.375C118.093 238.375 120.59 240.755 124.322 237.027L125.423 235.035L133.388 240.856L137.804 241.399C138.77 241.517 139.626 241.38 140.123 242.216Z" fill="#2F2E41"/>
<path d="M94.1229 242.361L100.493 242.36L103.524 217.81L94.1216 217.81L94.1229 242.361Z" fill="#FFB6B6"/>
<path d="M115.949 242.216C116.148 242.55 116.252 243.627 116.252 244.015C116.252 245.209 115.284 246.176 114.09 246.176H94.3612C93.5466 246.176 92.8861 245.516 92.8861 244.702V243.881C92.8861 243.881 91.9102 241.415 93.9195 238.375C93.9195 238.375 96.4169 240.755 100.149 237.027L101.249 235.035L109.215 240.856L113.63 241.399C114.596 241.517 115.452 241.38 115.949 242.216Z" fill="#2F2E41"/>
<path d="M89.4314 110.484L81.3735 128.732L91.5801 228.559L104.204 229.364L109.307 141.076L114.142 229.632L129.183 228.022L132.751 115.604L89.4314 110.484Z" fill="#2F2E41"/>
<path d="M121.178 37.7602L105.01 34.8083L101.744 38.0708L85.1339 45.0058L87.8198 97.0662C87.8198 97.0662 82.448 100.641 85.1339 105.563C87.8198 110.484 87.2827 116.388 87.2827 116.388H132.751L130.795 86.8688L136.167 49.2994L123.615 43.3621L121.178 37.7602Z" fill="#6097F1"/>
<path d="M114.109 33.2851C121.951 33.2851 128.309 26.9334 128.309 19.0982C128.309 11.2631 121.951 4.91138 114.109 4.91138C106.267 4.91138 99.9094 11.2631 99.9094 19.0982C99.9094 26.9334 106.267 33.2851 114.109 33.2851Z" fill="#FFB6B6"/>
<path d="M103.925 31.6923C102.224 31.8441 99.4469 27.4964 99.5707 23.2858C99.6503 20.577 97.2965 20.0444 97.1216 16.5511C97.0197 14.5156 100.149 13.8809 100.364 12.2483C100.754 9.29015 102.664 7.29962 102.902 7.05764C104.961 4.96882 106.414 5.64787 108.835 3.22698C110.292 1.76948 109.919 1.37018 110.9 0.723702C113.733 -1.14207 118.823 0.880071 121.867 3.60398C122.921 4.54655 126.847 3.51637 128.562 6.17812C130.583 9.31414 130.114 15.7097 129.247 16.5537C128.721 17.0665 127.519 15.8137 124.26 15.0097C121.243 14.2652 124.089 17.9466 120.601 17.3288C116.477 16.5983 115.67 15.3447 114.125 16.0966C112.492 16.8914 111.217 19.3525 111.587 21.2872C111.771 22.2473 112.304 22.7826 112.003 23.2708C111.455 24.1621 110.825 23.288 110.122 24.1825C109.303 25.2229 111.337 27.8919 110.954 28.1496C110.877 28.2016 110.643 28.1948 108.448 26.0859C107.572 25.2438 107.315 24.7267 107.144 24.8061C106.866 24.9346 105.047 26.6279 105.741 27.9651C106.823 30.0461 105.439 30.1109 105.741 31.5118C106.054 32.9571 105.006 31.5958 103.925 31.6923Z" fill="#2F2E41"/>
<path d="M119.019 100.621C114.833 102.804 112.567 106.732 113.958 109.394C115.349 112.056 119.87 112.443 124.058 110.258C125.742 109.409 127.199 108.168 128.306 106.641L145.928 97.1666L141.301 88.9994L124.42 99.2063C122.533 99.2401 120.681 99.7252 119.019 100.621Z" fill="#FFB6B6"/>
<path d="M132.944 49.8361C132.944 49.8361 137.778 46.6159 141.001 55.2032C143.544 61.9778 148.26 81.9471 150.138 90.0755C150.636 92.2334 149.915 94.4874 148.258 95.9587L146.105 97.8713L135.63 105.653L128.487 95.2699L137.162 90.0446L127.269 68.604L132.944 49.8361Z" fill="#6097F1"/>
<path d="M133.136 94.2401V83.2338C133.136 82.5991 133.653 82.0827 134.288 82.0827H139.619C140.254 82.0827 140.771 82.5991 140.771 83.2338V94.2401C140.771 94.8747 140.254 95.3911 139.619 95.3911H134.288C133.653 95.3911 133.136 94.8747 133.136 94.2401Z" fill="#6C63FF"/>
<path d="M209.316 76.5263C218.036 76.5263 225.105 69.4635 225.105 60.7511C225.105 52.0387 218.036 44.976 209.316 44.976C200.596 44.976 193.527 52.0387 193.527 60.7511C193.527 69.4635 200.596 76.5263 209.316 76.5263Z" fill="#FF6884"/>
<path d="M193.723 160.788L175.881 161.034L168.728 81.3455C168.554 79.4113 169.179 77.4556 170.443 75.9802L187.988 55.502C190.444 52.6356 194.62 52.1184 197.702 54.3001L219.676 69.855C221.468 71.124 222.579 73.108 222.723 75.2983L238.763 129.138L236.612 147.093L236.633 147.117L239.176 160.162L193.723 160.788Z" fill="#E6E6E6"/>
<path d="M189.986 74.0309L189.699 70.3322C189.623 69.356 190.356 68.5 191.333 68.4243L196.534 68.0209C197.512 67.9452 198.368 68.6778 198.444 69.6541L198.731 73.3528C198.807 74.3291 198.074 75.185 197.097 75.2608L191.896 75.6641C190.918 75.7398 190.062 75.0072 189.986 74.0309Z" fill="#6097F1"/>
<path d="M181.221 103.593L180.158 89.9084C180.083 88.9321 180.816 88.0762 181.793 88.0004L189.493 87.4033C190.47 87.3276 191.327 88.0602 191.403 89.0365L192.466 102.721C192.542 103.697 191.808 104.553 190.831 104.629L183.131 105.226C182.154 105.302 181.297 104.569 181.221 103.593Z" fill="#3F3D56"/>
<path d="M201.115 134.276C200.182 134.315 199.373 133.619 199.273 132.691L197.856 119.495C197.796 118.931 198 118.388 198.415 118.002C198.831 117.617 199.39 117.456 199.947 117.559L200.345 117.633C201.135 117.779 201.731 118.44 201.793 119.241L202.812 132.364C202.85 132.849 202.693 133.316 202.37 133.68C202.062 134.028 201.641 134.236 201.18 134.272C201.158 134.274 201.137 134.275 201.115 134.276Z" fill="#3F3D56"/>
<path d="M184.817 133.704L183.751 119.979C183.676 119.011 184.375 118.174 185.343 118.075L192.328 117.362C193.297 117.273 194.172 117.971 194.276 118.94L195.759 132.804C195.81 133.285 195.668 133.755 195.358 134.128C195.048 134.5 194.612 134.725 194.129 134.763L186.727 135.337C185.75 135.413 184.893 134.68 184.817 133.704Z" fill="#3F3D56"/>
<path d="M226.912 139.874L233.154 149.192L234.635 160.1L239.024 160.039L236.516 147.173L226.551 135.388C225.883 136.845 226.02 138.543 226.912 139.874Z" fill="#CCCCCC"/>
<path d="M234.216 156.978L216.431 158.602L216.454 158.851L234.238 157.227L234.216 156.978Z" fill="#3F3D56"/>
<path d="M232.965 154.858L216.095 156.299L216.116 156.548L232.986 155.108L232.965 154.858Z" fill="#3F3D56"/>
<path d="M231.913 152.675L215.791 154.242L215.816 154.491L231.938 152.924L231.913 152.675Z" fill="#3F3D56"/>
<path d="M231.238 150.475L215.772 152.191L215.8 152.44L231.266 150.724L231.238 150.475Z" fill="#3F3D56"/>
<path d="M230.334 148.539L215.477 150.217L215.505 150.466L230.362 148.788L230.334 148.539Z" fill="#3F3D56"/>
<path d="M229.202 146.861L214.692 147.987L214.711 148.236L229.222 147.111L229.202 146.861Z" fill="#3F3D56"/>
<path d="M228.315 145.168L214.226 146.426L214.248 146.676L228.337 145.417L228.315 145.168Z" fill="#3F3D56"/>
<path d="M227.427 143.48L213.798 144.993L213.825 145.242L227.455 143.729L227.427 143.48Z" fill="#3F3D56"/>
<path d="M226.794 141.78L213.319 143.064L213.343 143.313L226.818 142.03L226.794 141.78Z" fill="#3F3D56"/>
<path d="M225.659 140.129L212.77 141.534L212.797 141.783L225.686 140.378L225.659 140.129Z" fill="#3F3D56"/>
<path d="M225.043 138.645L212.247 139.763L212.269 140.012L225.065 138.894L225.043 138.645Z" fill="#3F3D56"/>
<path d="M210.902 134.569L209.587 117.639C209.511 116.663 210.245 115.807 211.222 115.731L219.422 115.095C220.399 115.02 221.255 115.752 221.331 116.729L222.646 133.659C222.722 134.635 221.989 135.491 221.012 135.567L212.812 136.202C211.835 136.278 210.978 135.546 210.902 134.569Z" fill="#6097F1"/>
<path d="M193.723 160.788L179.136 160.99L179.019 160.992L178.147 149.768C178.037 148.349 179.103 147.104 180.523 146.994L194.86 145.882C196.281 145.772 197.527 146.838 197.637 148.257L198.581 160.412L198.456 160.422L193.723 160.788Z" fill="#CCCCCC"/>
<path d="M209.517 103.785L208.512 90.8494C208.436 89.8731 209.169 89.0171 210.146 88.9414L212.849 88.7318C213.826 88.6561 214.683 89.3887 214.759 90.365L215.763 103.301C215.839 104.277 215.106 105.133 214.129 105.209L211.426 105.418C210.449 105.494 209.592 104.761 209.517 103.785Z" fill="#3F3D56"/>
<path d="M216.669 160.265L215.066 149.339L212.003 139.028L211.155 136.205C209.804 135.433 208.15 136.537 208.348 138.08L208.505 139.299L211.568 149.61L213.171 160.537" fill="#CCCCCC"/>
<path d="M37.111 162.802L19.2688 163.048L12.1156 83.3594C11.9421 81.4252 12.5674 79.4695 13.8314 77.9941L31.3758 57.5159C33.8318 54.6495 38.0076 54.1323 41.0896 56.314L63.0636 71.8689C64.8562 73.1379 65.9671 75.1219 66.1113 77.3122L82.1514 131.152L80 149.106L80.0211 149.131L82.5636 162.176L37.111 162.802Z" fill="#E6E6E6"/>
<path d="M33.3737 76.0448L33.0864 72.3462C33.0106 71.3699 33.7439 70.5139 34.7211 70.4382L39.9224 70.0349C40.8996 69.9591 41.7562 70.6918 41.832 71.668L42.1193 75.3667C42.1952 76.343 41.462 77.1989 40.4848 77.2747L35.2835 77.678C34.3063 77.7537 33.4496 77.0211 33.3737 76.0448Z" fill="#6097F1"/>
<path d="M24.6094 105.607L23.5464 91.9223C23.4706 90.9461 24.2039 90.0901 25.181 90.0144L32.8811 89.4173C33.8583 89.3415 34.7149 90.0742 34.7907 91.0505L35.8537 104.735C35.9295 105.711 35.1964 106.567 34.2192 106.643L26.5191 107.24C25.5419 107.316 24.6852 106.583 24.6094 105.607Z" fill="#3F3D56"/>
<path d="M44.503 136.29C43.5697 136.329 42.7607 135.633 42.6608 134.705L41.2441 121.508C41.1836 120.945 41.3875 120.401 41.8034 120.016C42.2193 119.631 42.7777 119.47 43.3353 119.573L43.7327 119.646C44.5232 119.793 45.1188 120.454 45.1811 121.255L46.2004 134.378C46.2381 134.863 46.0809 135.33 45.758 135.694C45.4495 136.042 45.0288 136.25 44.5676 136.286C44.5461 136.288 44.5246 136.289 44.503 136.29Z" fill="#3F3D56"/>
<path d="M28.2052 135.718L27.1391 121.993C27.0638 121.024 27.7629 120.188 28.7306 120.089L35.7159 119.376C36.6849 119.287 37.5602 119.985 37.6641 120.954L39.1466 134.818C39.1979 135.299 39.0558 135.769 38.7459 136.141C38.4363 136.514 37.9997 136.739 37.5166 136.777L30.1149 137.351C29.1377 137.426 28.281 136.694 28.2052 135.718Z" fill="#3F3D56"/>
<path d="M70.2997 141.888L76.5419 151.206L78.0227 162.114L82.412 162.053L79.9044 149.187L69.9393 137.402C69.2714 138.859 69.4078 140.557 70.2997 141.888Z" fill="#CCCCCC"/>
<path d="M77.6036 158.992L59.8193 160.615L59.8421 160.865L77.6264 159.241L77.6036 158.992Z" fill="#3F3D56"/>
<path d="M76.3526 156.872L59.4827 158.313L59.504 158.562L76.3739 157.122L76.3526 156.872Z" fill="#3F3D56"/>
<path d="M75.3014 154.689L59.1792 156.256L59.2035 156.505L75.3257 154.938L75.3014 154.689Z" fill="#3F3D56"/>
<path d="M74.6263 152.489L59.1602 154.205L59.1878 154.454L74.654 152.738L74.6263 152.489Z" fill="#3F3D56"/>
<path d="M73.7219 150.553L58.8645 152.231L58.8927 152.48L73.75 150.802L73.7219 150.553Z" fill="#3F3D56"/>
<path d="M72.5901 148.875L58.0796 150L58.099 150.25L72.6095 149.125L72.5901 148.875Z" fill="#3F3D56"/>
<path d="M71.7028 147.182L57.6138 148.44L57.6361 148.69L71.7252 147.431L71.7028 147.182Z" fill="#3F3D56"/>
<path d="M70.8149 145.494L57.1855 147.007L57.2132 147.256L70.8426 145.743L70.8149 145.494Z" fill="#3F3D56"/>
<path d="M70.1823 143.794L56.7073 145.078L56.7311 145.327L70.2061 144.044L70.1823 143.794Z" fill="#3F3D56"/>
<path d="M69.0466 142.143L56.158 143.548L56.1852 143.797L69.0738 142.392L69.0466 142.143Z" fill="#3F3D56"/>
<path d="M68.4313 140.659L55.635 141.777L55.6568 142.026L68.4532 140.908L68.4313 140.659Z" fill="#3F3D56"/>
<path d="M54.2902 136.583L52.9751 119.653C52.8993 118.677 53.6326 117.821 54.6098 117.745L62.8096 117.109C63.7868 117.034 64.6433 117.766 64.7192 118.743L66.0343 135.673C66.1101 136.649 65.3769 137.505 64.3997 137.581L56.1999 138.216C55.2227 138.292 54.366 137.56 54.2902 136.583Z" fill="#6097F1"/>
<path d="M37.1111 162.802L22.5241 163.004L22.4065 163.006L21.5347 151.782C21.4244 150.363 22.4905 149.118 23.9112 149.008L38.2484 147.896C39.6691 147.786 40.9146 148.851 41.0248 150.271L41.969 162.426L41.8441 162.436L37.1111 162.802Z" fill="#CCCCCC"/>
<path d="M52.9045 105.799L51.8997 92.8633C51.8238 91.887 52.5572 91.0311 53.5343 90.9553L56.2369 90.7457C57.2141 90.67 58.0707 91.4026 58.1465 92.3789L59.1513 105.315C59.2272 106.291 58.494 107.147 57.5168 107.223L54.8142 107.432C53.837 107.508 52.9803 106.775 52.9045 105.799Z" fill="#3F3D56"/>
<path d="M60.0569 162.279L58.4541 151.353L55.3907 141.042L54.543 138.219C53.1916 137.447 51.5383 138.551 51.7362 140.094L51.8925 141.313L54.9558 151.624L56.5587 162.55" fill="#CCCCCC"/>
<path d="M131.194 161.618L113.352 161.864L106.199 82.1754C106.025 80.2412 106.651 78.2855 107.915 76.8101L125.459 56.3318C127.915 53.4651 132.091 52.9484 135.173 55.13L157.147 70.6849C158.939 71.9539 168.584 79.1552 168.728 81.3455L164.145 136.169L174.083 147.922L174.104 147.947L176.647 160.992L131.194 161.618Z" fill="#E6E6E6"/>
<path d="M127.457 74.8608L127.17 71.1621C127.094 70.1859 127.827 69.3299 128.804 69.2541L134.006 68.8508C134.983 68.7751 135.839 69.5077 135.915 70.484L136.203 74.1827C136.278 75.159 135.545 76.0149 134.568 76.0907L129.367 76.494C128.39 76.5697 127.533 75.8371 127.457 74.8608Z" fill="#6097F1"/>
<path d="M118.693 104.423L117.63 90.7383C117.554 89.762 118.287 88.9061 119.264 88.8303L126.964 88.2333C127.941 88.1575 128.798 88.8902 128.874 89.8665L129.937 103.551C130.013 104.527 129.279 105.383 128.302 105.459L120.602 106.056C119.625 106.132 118.768 105.399 118.693 104.423Z" fill="#3F3D56"/>
<path d="M136.057 119.016C135.7 119.347 135.525 119.814 135.577 120.298L136.993 133.494C137.079 134.291 137.774 134.889 138.576 134.856C138.997 134.84 139.376 134.656 139.654 134.344C139.931 134.032 140.066 133.63 140.034 133.214L139.014 120.091C138.961 119.403 138.449 118.834 137.77 118.709L137.373 118.635C137.238 118.61 137.104 118.603 136.972 118.613C136.634 118.64 136.314 118.778 136.057 119.016Z" fill="#3F3D56"/>
<path d="M114.937 136.441C114.562 136.132 114.334 135.694 114.297 135.209L113.277 122.086C113.215 121.285 113.701 120.54 114.46 120.273L114.841 120.139C115.376 119.952 115.953 120.025 116.423 120.341C116.894 120.658 117.179 121.164 117.206 121.729L117.844 134.986C117.889 135.919 117.198 136.731 116.269 136.836C116.248 136.839 116.226 136.841 116.205 136.842C115.744 136.878 115.296 136.737 114.937 136.441Z" fill="#3F3D56"/>
<path d="M164.383 140.704L170.625 150.022L172.106 160.93L176.495 160.869L173.988 148.003L164.023 136.218C163.355 137.675 163.491 139.373 164.383 140.704Z" fill="#CCCCCC"/>
<path d="M171.687 157.808L153.903 159.431L153.925 159.681L171.71 158.057L171.687 157.808Z" fill="#3F3D56"/>
<path d="M170.436 155.688L153.566 157.129L153.587 157.378L170.457 155.938L170.436 155.688Z" fill="#3F3D56"/>
<path d="M169.385 153.505L153.262 155.072L153.287 155.321L169.409 153.754L169.385 153.505Z" fill="#3F3D56"/>
<path d="M168.71 151.305L153.243 153.021L153.271 153.27L168.737 151.554L168.71 151.305Z" fill="#3F3D56"/>
<path d="M167.805 149.369L152.948 151.047L152.976 151.296L167.833 149.618L167.805 149.369Z" fill="#3F3D56"/>
<path d="M166.673 147.691L152.163 148.817L152.182 149.066L166.693 147.941L166.673 147.691Z" fill="#3F3D56"/>
<path d="M165.786 145.998L151.697 147.256L151.719 147.506L165.808 146.247L165.786 145.998Z" fill="#3F3D56"/>
<path d="M164.898 144.31L151.269 145.823L151.296 146.072L164.926 144.559L164.898 144.31Z" fill="#3F3D56"/>
<path d="M164.266 142.61L150.791 143.893L150.814 144.143L164.289 142.86L164.266 142.61Z" fill="#3F3D56"/>
<path d="M163.13 140.959L150.241 142.364L150.268 142.613L163.157 141.208L163.13 140.959Z" fill="#3F3D56"/>
<path d="M162.515 139.475L149.718 140.593L149.74 140.842L162.536 139.724L162.515 139.475Z" fill="#3F3D56"/>
<path d="M148.373 135.399L147.058 118.469C146.982 117.493 147.716 116.637 148.693 116.561L156.893 115.925C157.87 115.85 158.726 116.582 158.802 117.559L160.117 134.489C160.193 135.465 159.46 136.321 158.483 136.397L150.283 137.032C149.306 137.108 148.449 136.376 148.373 135.399Z" fill="#6097F1"/>
<path d="M131.194 161.618L116.607 161.82L116.49 161.822L115.618 150.598C115.507 149.179 116.574 147.934 117.994 147.824L132.332 146.712C133.752 146.602 134.998 147.667 135.108 149.087L136.052 161.242L135.927 161.252L131.194 161.618Z" fill="#CCCCCC"/>
<path d="M146.987 104.615L145.983 91.6793C145.907 90.703 146.64 89.8471 147.617 89.7713L150.32 89.5618C151.297 89.486 152.154 90.2187 152.23 91.195L153.234 104.131C153.31 105.107 152.577 105.963 151.6 106.039L148.897 106.248C147.92 106.324 147.063 105.591 146.987 104.615Z" fill="#3F3D56"/>
<path d="M154.14 161.095L152.537 150.169L149.474 139.858L148.626 137.035C147.275 136.263 145.621 137.367 145.819 138.91L145.975 140.129L149.039 150.44L150.642 161.366" fill="#CCCCCC"/>
<path d="M255.993 159.828L27.499 162.787L27.5055 163.288L256 160.328L255.993 159.828Z" fill="#CCCCCC"/>
<path d="M103.829 86.2067C109.481 86.2067 114.063 81.6289 114.063 75.9819C114.063 70.335 109.481 65.7572 103.829 65.7572C98.1771 65.7572 93.5952 70.335 93.5952 75.9819C93.5952 81.6289 98.1771 86.2067 103.829 86.2067Z" fill="#6097F1"/>
<path d="M110.471 65.2102C109.873 64.861 108.962 65.0423 108.633 65.6915C107.337 68.2538 106.392 70.9359 105.776 73.7125C104.794 72.5022 103.811 71.2919 102.828 70.0815C102.371 69.5183 101.404 69.6066 100.929 70.0815C100.372 70.6383 100.47 71.4145 100.929 71.9791C102.493 73.9057 104.058 75.8323 105.622 77.7589C105.952 78.1658 106.646 78.2309 107.089 78.0364C107.624 77.8016 107.842 77.3678 107.915 76.8101C108.358 73.422 109.411 70.0925 110.952 67.046C111.279 66.3995 111.123 65.5915 110.471 65.2102Z" fill="white"/>
<path d="M109.459 98.4125C114.053 99.508 118.342 98.0281 119.039 95.1073C119.737 92.1865 116.579 88.9315 111.983 87.8361C110.154 87.3734 108.24 87.3552 106.402 87.783L86.8802 83.3866L85.0105 92.5832L104.454 95.9409C105.901 97.1523 107.617 97.9998 109.459 98.4125Z" fill="#FFB6B6"/>
<path d="M88.357 47.6893L85.1339 45.0057C85.1339 45.0057 78.6876 48.226 77.6132 50.9095C76.5389 53.593 70.0926 79.3549 70.0926 79.3549C70.0926 79.3549 68.8279 93.4736 72.1462 95.2699C75.4645 97.0662 96.4148 95.9928 96.4148 95.9928L98.0264 85.2587L89.4314 82.0384L88.357 47.6893Z" fill="#6097F1"/>
<path d="M216.908 198.017C216.455 197.253 214.492 198.071 214.132 197.378C213.772 196.687 215.595 195.634 216.637 193.229C216.825 192.795 218.008 190.062 217.132 189.219C215.471 187.621 207.871 194.217 205.211 192.058C204.628 191.585 204.22 190.639 202.453 189.103C201.751 188.493 201.326 188.217 200.914 188.319C200.331 188.465 200.285 189.245 199.659 190.78C198.72 193.081 198.165 192.942 197.618 194.778C197.212 196.14 197.305 196.933 196.828 197.087C196.152 197.305 195.53 195.86 194.673 195.989C193.799 196.121 193.27 197.805 193.103 199.065C192.79 201.429 193.659 202.99 194.141 204.631C194.665 206.414 194.975 209.126 193.766 212.964L181.799 246.651C184.441 239.739 192.091 220.79 195.305 213.748C196.233 211.716 197.258 209.654 199.362 208.84C201.387 208.057 204.169 208.524 207.715 207.671C208.129 207.571 209.279 207.279 209.423 206.604C209.543 206.045 208.867 205.734 208.971 205.211C209.11 204.509 210.44 204.501 212.073 203.691C213.225 203.121 213.943 202.442 214.56 201.858C214.746 201.682 217.512 199.034 216.908 198.017Z" fill="#F2F2F2"/>
<path d="M169.826 215.751C169.32 215.753 169.156 216.951 168.711 216.928C168.268 216.905 168.277 215.708 167.396 214.503C167.237 214.286 166.236 212.917 165.569 213.103C164.304 213.456 165.352 219.086 163.524 219.768C163.123 219.917 162.541 219.844 161.277 220.268C160.774 220.436 160.516 220.565 160.448 220.796C160.351 221.124 160.721 221.372 161.294 222.122C162.153 223.246 161.925 223.478 162.669 224.276C163.221 224.868 163.637 225.051 163.575 225.33C163.488 225.724 162.598 225.612 162.415 226.07C162.227 226.536 162.902 227.281 163.472 227.727C164.544 228.563 165.561 228.586 166.506 228.824C167.533 229.081 168.955 229.712 170.492 231.412L183.588 247C180.954 243.71 173.853 234.492 171.321 230.884C170.59 229.842 169.873 228.745 170.08 227.478C170.28 226.259 171.312 225.03 171.916 223.045C171.987 222.813 172.175 222.165 171.885 221.899C171.645 221.679 171.297 221.921 171.07 221.719C170.765 221.448 171.145 220.794 171.219 219.759C171.271 219.03 171.144 218.482 171.036 218.011C171.003 217.869 170.5 215.749 169.826 215.751Z" fill="#F2F2F2"/>
<path d="M179.925 218.016L179.62 215.296L179.759 215.09C180.404 214.136 180.733 213.205 180.737 212.321C180.738 212.181 180.731 212.04 180.724 211.897C180.698 211.33 180.665 210.624 181.033 209.802C181.24 209.344 181.819 208.282 182.691 208.414C182.926 208.447 183.103 208.554 183.238 208.68C183.258 208.649 183.278 208.617 183.3 208.583C183.571 208.169 183.786 207.992 183.993 207.821C184.152 207.69 184.317 207.555 184.574 207.234C184.687 207.094 184.775 206.97 184.85 206.867C185.075 206.553 185.37 206.178 185.889 206.185C186.444 206.211 186.734 206.67 186.927 206.973C187.271 207.514 187.426 207.904 187.529 208.163C187.567 208.257 187.61 208.364 187.631 208.397C187.81 208.659 189.263 208.414 189.811 208.324C191.041 208.12 192.105 207.942 192.543 208.717C192.858 209.271 192.624 210.004 191.829 210.954C191.581 211.249 191.318 211.474 191.084 211.65C191.277 211.766 191.451 211.943 191.521 212.221C191.687 212.881 191.12 213.541 189.836 214.188C189.517 214.349 189.088 214.565 188.487 214.668C188.203 214.717 187.948 214.729 187.73 214.735C187.725 214.861 187.696 214.998 187.619 215.139C187.393 215.552 186.924 215.749 186.217 215.702C185.439 215.661 184.798 215.513 184.232 215.383C183.739 215.27 183.314 215.174 182.98 215.196C182.36 215.246 181.883 215.741 181.323 216.384L179.925 218.016Z" fill="#F2F2F2"/>
<path d="M181.34 201.821L178.784 202.805L178.549 202.723C177.462 202.342 176.477 202.26 175.62 202.481C175.484 202.516 175.35 202.558 175.213 202.6C174.67 202.77 173.996 202.98 173.106 202.833C172.61 202.75 171.436 202.459 171.342 201.583C171.314 201.348 171.373 201.149 171.461 200.987C171.425 200.976 171.39 200.964 171.351 200.952C170.882 200.795 170.656 200.632 170.438 200.475C170.27 200.355 170.098 200.23 169.722 200.063C169.557 199.989 169.415 199.935 169.296 199.89C168.935 199.751 168.498 199.562 168.373 199.058C168.257 198.515 168.627 198.118 168.872 197.855C169.309 197.386 169.647 197.136 169.871 196.971C169.953 196.911 170.046 196.842 170.072 196.813C170.281 196.574 169.675 195.232 169.449 194.725C168.939 193.588 168.497 192.605 169.136 191.985C169.593 191.541 170.362 191.58 171.483 192.108C171.832 192.272 172.116 192.47 172.346 192.652C172.409 192.435 172.537 192.222 172.788 192.084C173.385 191.756 174.168 192.137 175.119 193.214C175.357 193.481 175.674 193.841 175.927 194.396C176.046 194.657 176.122 194.901 176.184 195.11C176.307 195.083 176.447 195.077 176.602 195.115C177.06 195.228 177.37 195.632 177.504 196.327C177.662 197.09 177.68 197.747 177.698 198.326C177.714 198.832 177.729 199.267 177.835 199.584C178.04 200.17 178.641 200.505 179.405 200.884L181.34 201.821Z" fill="#F2F2F2"/>
<path d="M179.925 193.807L179.62 191.087L179.759 190.881C180.404 189.927 180.733 188.996 180.737 188.112C180.738 187.972 180.731 187.831 180.724 187.688C180.698 187.12 180.665 186.415 181.033 185.593C181.24 185.135 181.819 184.073 182.691 184.205C182.926 184.237 183.103 184.345 183.238 184.471C183.258 184.44 183.278 184.408 183.3 184.374C183.571 183.96 183.786 183.783 183.993 183.612C184.152 183.481 184.317 183.346 184.574 183.025C184.687 182.885 184.775 182.761 184.85 182.657C185.075 182.344 185.37 181.969 185.889 181.976C186.444 182.002 186.734 182.46 186.927 182.764C187.271 183.305 187.426 183.695 187.529 183.954C187.567 184.048 187.61 184.155 187.631 184.188C187.81 184.45 189.263 184.205 189.811 184.115C191.041 183.91 192.105 183.733 192.543 184.508C192.858 185.062 192.624 185.795 191.829 186.745C191.581 187.04 191.318 187.265 191.084 187.441C191.277 187.556 191.451 187.734 191.521 188.012C191.687 188.672 191.12 189.332 189.836 189.978C189.517 190.14 189.088 190.355 188.487 190.459C188.203 190.508 187.948 190.52 187.73 190.526C187.725 190.652 187.696 190.789 187.619 190.929C187.393 191.343 186.924 191.54 186.217 191.493C185.439 191.452 184.798 191.304 184.232 191.174C183.739 191.061 183.314 190.965 182.98 190.987C182.36 191.037 181.883 191.532 181.323 192.175L179.925 193.807Z" fill="#F2F2F2"/>
<path d="M182.711 246.607L182.14 246.25L181.475 246.326C181.465 246.264 181.428 246.122 181.374 245.9C181.076 244.684 180.168 240.983 179.411 235.154C178.883 231.085 178.584 226.902 178.522 222.718C178.46 218.528 178.659 215.357 178.818 212.807C178.938 210.884 179.084 209.053 179.227 207.27C179.608 202.505 179.968 198.004 179.7 193.02C179.641 191.908 179.517 189.592 178.163 187.128C177.377 185.699 176.296 184.431 174.947 183.359L175.785 182.305C177.274 183.49 178.471 184.896 179.344 186.482C180.845 189.214 180.98 191.737 181.045 192.949C181.317 198.021 180.954 202.565 180.569 207.376C180.427 209.153 180.281 210.976 180.161 212.891C180.003 215.417 179.807 218.561 179.868 222.697C179.929 226.831 180.224 230.963 180.746 234.981C181.494 240.736 182.388 244.382 182.682 245.58C182.838 246.22 182.871 246.354 182.711 246.607Z" fill="#F2F2F2"/>
<path d="M172.478 185.496C172.423 185.496 172.367 185.494 172.31 185.491C171.164 185.429 170.102 184.743 169.155 183.453C168.71 182.847 168.483 182.154 168.029 180.774C167.959 180.561 167.617 179.482 167.409 177.996C167.273 177.025 167.29 176.62 167.483 176.261C167.697 175.862 168.042 175.583 168.431 175.395C168.414 175.267 168.428 175.134 168.484 174.999C168.713 174.438 169.323 174.512 169.653 174.547C169.82 174.568 170.029 174.596 170.254 174.584C170.607 174.567 170.797 174.462 171.085 174.304C171.36 174.153 171.703 173.965 172.211 173.861C173.213 173.653 174.052 173.936 174.329 174.03C175.785 174.514 176.503 175.645 177.333 176.955C177.499 177.217 178.068 178.173 178.443 179.484C178.714 180.43 178.676 180.85 178.594 181.163C178.428 181.805 178.037 182.173 177.044 182.984C176.007 183.834 175.486 184.26 175.039 184.519C173.999 185.119 173.345 185.496 172.478 185.496Z" fill="#F2F2F2"/>
<path d="M229.938 245.995C229.938 246.244 229.736 246.446 229.487 246.446H0.451255C0.202037 246.446 0 246.244 0 245.995C0 245.746 0.202031 245.545 0.451255 245.545H229.487C229.736 245.545 229.938 245.746 229.938 245.995Z" fill="#E6E6E6"/>
</g>
<defs>
<clipPath id="clip0_2_229">
<rect width="256" height="247" fill="white"/>
</clipPath>
</defs>
</svg>
