<svg width="324" height="257" viewBox="0 0 324 257" fill="none" xmlns="http://www.w3.org/2000/svg">
<g clip-path="url(#clip0_2_325)">
<path d="M137.383 246.912C138.568 246.986 139.224 245.518 138.327 244.662L138.237 244.308C138.249 244.28 138.261 244.252 138.273 244.223C139.472 241.373 143.536 241.393 144.725 244.247C145.781 246.78 147.124 249.318 147.455 251.996C147.603 253.178 147.537 254.383 147.273 255.543C149.746 250.16 151.048 244.281 151.048 238.37C151.048 236.884 150.966 235.399 150.799 233.918C150.662 232.706 150.473 231.501 150.228 230.308C148.905 223.857 146.039 217.712 141.905 212.58C139.918 211.498 138.261 209.805 137.26 207.777C136.9 207.045 136.619 206.259 136.485 205.457C136.711 205.486 137.338 202.054 137.167 201.843C137.482 201.367 138.046 201.13 138.391 200.665C140.103 198.352 142.461 198.756 143.692 201.899C146.322 203.222 146.348 205.416 144.734 207.526C143.707 208.868 143.566 210.685 142.665 212.122C142.758 212.24 142.854 212.355 142.947 212.473C144.647 214.646 146.117 216.981 147.356 219.434C147.006 216.708 147.523 213.423 148.404 211.306C149.408 208.893 151.288 206.861 152.945 204.776C154.934 202.271 159.014 203.364 159.364 206.539C159.368 206.57 159.371 206.601 159.374 206.632C159.128 206.77 158.887 206.917 158.652 207.072C157.309 207.957 157.773 210.032 159.364 210.277L159.4 210.282C159.311 211.165 159.159 212.041 158.937 212.902C161.062 221.091 156.474 224.074 149.924 224.208C149.78 224.282 149.639 224.355 149.494 224.426C150.158 226.288 150.688 228.198 151.081 230.134C151.433 231.845 151.678 233.574 151.815 235.31C151.986 237.501 151.971 239.704 151.785 241.891L151.796 241.813C152.267 239.404 153.58 237.154 155.485 235.595C158.324 233.271 162.335 232.415 165.397 230.547C166.871 229.648 168.76 230.81 168.503 232.513L168.491 232.595C168.035 232.78 167.59 232.994 167.16 233.234C166.914 233.372 166.673 233.519 166.437 233.674C165.094 234.56 165.558 236.634 167.15 236.879L167.186 236.884C167.212 236.888 167.234 236.892 167.26 236.896C166.477 238.747 165.388 240.465 164.023 241.946C162.695 249.095 156.988 249.773 150.884 247.692H150.881C150.213 250.588 149.238 253.418 147.985 256.116H137.642C137.605 256.001 137.571 255.883 137.538 255.768C138.494 255.827 139.458 255.772 140.4 255.598C139.633 254.66 138.865 253.714 138.098 252.776C138.079 252.757 138.064 252.739 138.05 252.72C137.66 252.24 137.267 251.763 136.878 251.283L136.878 251.282C136.854 249.808 137.031 248.338 137.383 246.912Z" fill="#F2F2F2"/>
<path d="M0 256.319C0 256.697 0.304233 257 0.683085 257H232.168C232.547 257 232.851 256.697 232.851 256.319C232.851 255.942 232.547 255.639 232.168 255.639H0.683085C0.304233 255.639 0 255.942 0 256.319Z" fill="#CCCCCC"/>
<path d="M312.678 256.848H194.119C187.877 256.848 182.798 251.786 182.798 245.565V11.2834C182.798 5.06181 187.877 0 194.119 0H312.678C318.921 0 324 5.06181 324 11.2834V245.565C324 251.786 318.921 256.848 312.678 256.848ZM194.119 1.14409C188.501 1.14409 183.946 5.68347 183.946 11.2831V245.565C183.946 251.165 188.501 255.704 194.12 255.704H312.678C318.297 255.704 322.852 251.165 322.852 245.565V86.21C322.852 39.2294 284.637 1.14409 237.497 1.14409H194.119Z" fill="#E6E6E6"/>
<path d="M216.472 115.621C224.08 115.621 230.248 109.474 230.248 101.892C230.248 94.3093 224.08 88.1625 216.472 88.1625C208.864 88.1625 202.696 94.3093 202.696 101.892C202.696 109.474 208.864 115.621 216.472 115.621Z" fill="#E6E6E6"/>
<path d="M290.326 115.621C297.934 115.621 304.102 109.474 304.102 101.892C304.102 94.3093 297.934 88.1625 290.326 88.1625C282.718 88.1625 276.55 94.3093 276.55 101.892C276.55 109.474 282.718 115.621 290.326 115.621Z" fill="#E6E6E6"/>
<path d="M253.399 115.621C261.007 115.621 267.175 109.474 267.175 101.892C267.175 94.3093 261.007 88.1625 253.399 88.1625C245.791 88.1625 239.623 94.3093 239.623 101.892C239.623 109.474 245.791 115.621 253.399 115.621Z" fill="#E6E6E6"/>
<path d="M216.472 155.092C224.08 155.092 230.248 148.945 230.248 141.363C230.248 133.78 224.08 127.634 216.472 127.634C208.864 127.634 202.696 133.78 202.696 141.363C202.696 148.945 208.864 155.092 216.472 155.092Z" fill="#E6E6E6"/>
<path d="M290.326 155.092C297.934 155.092 304.101 148.945 304.101 141.363C304.101 133.78 297.934 127.634 290.326 127.634C282.717 127.634 276.55 133.78 276.55 141.363C276.55 148.945 282.717 155.092 290.326 155.092Z" fill="#E6E6E6"/>
<path d="M253.399 155.092C261.007 155.092 267.175 148.945 267.175 141.363C267.175 133.78 261.007 127.634 253.399 127.634C245.791 127.634 239.623 133.78 239.623 141.363C239.623 148.945 245.791 155.092 253.399 155.092Z" fill="#E6E6E6"/>
<path d="M216.472 194.563C224.08 194.563 230.248 188.416 230.248 180.834C230.248 173.251 224.08 167.105 216.472 167.105C208.864 167.105 202.696 173.251 202.696 180.834C202.696 188.416 208.864 194.563 216.472 194.563Z" fill="#E6E6E6"/>
<path d="M290.044 233.966C297.652 233.966 303.82 227.82 303.82 220.237C303.82 212.655 297.652 206.508 290.044 206.508C282.436 206.508 276.268 212.655 276.268 220.237C276.268 227.82 282.436 233.966 290.044 233.966Z" fill="#E6E6E6"/>
<path d="M235.228 233.966C253.139 233.966 267.658 227.82 267.658 220.237C267.658 212.655 253.139 206.508 235.228 206.508C217.317 206.508 202.797 212.655 202.797 220.237C202.797 227.82 217.317 233.966 235.228 233.966Z" fill="#E6E6E6"/>
<path d="M290.326 194.563C297.934 194.563 304.101 188.416 304.101 180.834C304.101 173.251 297.934 167.105 290.326 167.105C282.717 167.105 276.55 173.251 276.55 180.834C276.55 188.416 282.717 194.563 290.326 194.563Z" fill="#E6E6E6"/>
<path d="M253.399 194.563C261.007 194.563 267.175 188.416 267.175 180.834C267.175 173.251 261.007 167.105 253.399 167.105C245.791 167.105 239.623 173.251 239.623 180.834C239.623 188.416 245.791 194.563 253.399 194.563Z" fill="#6097F1"/>
<path d="M256.106 16.0172H124.355C120.449 16.0172 117.272 19.1831 117.272 23.0764V71.3109C117.272 75.2042 120.449 78.3701 124.355 78.3701H256.106C260.013 78.3701 263.189 75.2042 263.189 71.3109V23.0764C263.189 19.1831 260.013 16.0172 256.106 16.0172Z" fill="white"/>
<path d="M256.106 16.0172H124.355C120.449 16.0172 117.272 19.1831 117.272 23.0764V71.3109C117.272 75.2042 120.449 78.3701 124.355 78.3701H256.106C260.013 78.3701 263.189 75.2042 263.189 71.3109V23.0764C263.189 19.1831 260.013 16.0172 256.106 16.0172ZM262.444 71.3109C262.444 74.796 259.603 77.6278 256.106 77.6278H124.355C120.859 77.6278 118.017 74.796 118.017 71.3109V23.0764C118.017 19.5914 120.859 16.7595 124.355 16.7595H256.106C259.603 16.7595 262.444 19.5914 262.444 23.0764V71.3109Z" fill="#3F3D56"/>
<path d="M248.778 45.1916H131.684C130.574 45.1916 129.675 46.088 129.675 47.1937C129.675 48.2995 130.574 49.1959 131.684 49.1959H248.778C249.887 49.1959 250.787 48.2995 250.787 47.1937C250.787 46.088 249.887 45.1916 248.778 45.1916Z" fill="#6097F1"/>
<path d="M39.0041 103.209L37.8306 110.174L48.2374 135.403L53.821 132.542L48.3864 108.933L47.6054 99.9224L39.0041 103.209Z" fill="#A0616A"/>
<path d="M50.4918 64.0282C50.4918 64.0282 45.0431 61.3977 40.8151 70.2857C36.5871 79.1737 37.1107 98.6673 37.1107 98.6673C37.1107 98.6673 35.5712 100.128 36.5485 101.151C37.5257 102.174 38.4369 103.797 37.4399 105.668C36.9145 106.655 35.6984 108.584 37.6898 109.132C39.6812 109.68 48.9962 107.091 48.9962 107.091C48.9962 107.091 52.4794 105.536 50.5003 104.489C48.5212 103.441 51.3086 97.1062 51.3086 97.1062L53.6117 78.8056L50.4918 64.0282Z" fill="#6097F1"/>
<path d="M54.7701 145.042C56.9571 144.373 57.8131 140.854 56.682 137.183C55.5509 133.513 52.8611 131.079 50.674 131.749C48.487 132.418 47.631 135.936 48.7621 139.607C49.8932 143.278 52.5831 145.711 54.7701 145.042Z" fill="#A0616A"/>
<path d="M106.348 253.17L111.563 251.775L108.646 231.062L100.949 233.121L106.348 253.17Z" fill="#A0616A"/>
<path d="M124.185 248.273C124.421 248.503 124.744 249.359 124.829 249.676C125.091 250.651 124.511 251.653 123.534 251.914L107.382 256.233C106.715 256.412 106.029 256.017 105.85 255.353L105.67 254.683C105.67 254.683 104.328 252.882 105.305 249.959C105.305 249.959 107.873 251.357 110.108 247.495L110.571 245.627L118.373 248.637L122.107 248.114C122.924 247.999 123.595 247.699 124.185 248.273Z" fill="#2F2E41"/>
<path d="M55.2245 253.05L60.6246 253.05L63.1934 232.292L55.2234 232.292L55.2245 253.05Z" fill="#A0616A"/>
<path d="M73.7259 252.928C73.894 253.211 73.9827 254.121 73.9827 254.45C73.9827 255.458 73.1622 256.276 72.1499 256.276H55.4266C54.736 256.276 54.1762 255.718 54.1762 255.03V254.336C54.1762 254.336 53.3489 252.251 55.0522 249.68C55.0522 249.68 57.1691 251.693 60.3323 248.541L61.2651 246.856L68.0173 251.778L71.7599 252.237C72.5787 252.337 73.3047 252.221 73.7259 252.928Z" fill="#2F2E41"/>
<path d="M91.163 129.399L105.363 190.398L112.218 239.685L101.446 241.149L71.577 157.215L64.722 241.149L52.4808 242.125C52.4808 242.125 42.6878 142.575 47.0946 130.375L91.163 129.399Z" fill="#2F2E41"/>
<path d="M108.065 57.2701L112.964 52.1681L118.591 25.4726L112.359 24.71L103.535 47.2798L99.0977 55.1688L108.065 57.2701Z" fill="#A0616A"/>
<path d="M76.4614 83.2355C76.4614 83.2355 81.0467 91.6614 89.5572 86.6801C98.0677 81.6989 107.069 62.0869 107.069 62.0869C107.069 62.0869 108.866 57.1014 110.746 56.1126C111.737 55.5914 114.286 55.0294 112.949 53.4603C111.611 51.8912 101.991 48.461 101.991 48.461C101.991 48.461 98.2335 47.7954 99.2794 49.7704C100.325 51.7454 96.8903 50.522 97.2371 52.6122C97.5839 54.7024 94.4463 55.4227 94.4463 55.4227L76.4614 83.2355Z" fill="#6097F1"/>
<path d="M120.529 21.7017C121.664 18.0321 120.812 14.5127 118.626 13.8408C116.44 13.1689 113.747 15.599 112.612 19.2685C111.476 22.9381 112.328 26.4575 114.514 27.1294C116.7 27.8013 119.393 25.3712 120.529 21.7017Z" fill="#A0616A"/>
<path d="M77.0701 54.0431H63.6638L63.1212 58.2557C63.1212 58.2557 46.2135 62.8895 46.6362 65.4171C47.0589 67.9447 49.5951 110.071 49.5951 110.071L47.4816 131.134C47.4816 131.134 85.524 147.141 91.4417 128.185L88.4828 106.279C88.4828 106.279 95.6686 68.7872 93.9778 67.1021C92.2871 65.4171 78.3382 58.6769 78.3382 58.6769L77.0701 54.0431Z" fill="#6097F1"/>
<path d="M69.2829 54.0955C75.9287 54.0955 81.3161 48.7264 81.3161 42.1032C81.3161 35.48 75.9287 30.1108 69.2829 30.1108C62.6372 30.1108 57.2498 35.48 57.2498 42.1032C57.2498 48.7264 62.6372 54.0955 69.2829 54.0955Z" fill="#A0616A"/>
<path d="M78.1945 37.1703C79.732 37.0407 81.2695 36.9112 82.8069 36.7817C82.2784 36.5401 81.728 36.2816 81.3759 35.8204C81.0238 35.3593 80.951 34.6307 81.3763 34.2357C81.8734 33.774 82.6965 34.0186 83.2398 34.4253C82.9407 32.8688 82.0085 31.4427 80.7007 30.5411C79.1033 29.4397 75.1513 30.753 73.2255 30.5002C71.0034 30.2084 70.7261 28.3204 68.504 28.0286C67.6665 27.9187 66.7239 27.8357 66.0653 28.363C65.3348 28.9478 65.2529 30.0535 64.6084 30.7313C63.6883 31.6991 62.1112 31.4136 60.8017 31.6859C58.9469 32.0716 57.5488 33.6924 56.903 35.4676C56.2573 37.2428 56.2335 39.1737 56.217 41.0619C56.1986 43.1781 56.1919 45.6279 57.7277 47.0895C58.6633 47.9799 61.2119 51.0349 61.4874 52.2947C61.6831 53.1894 69.6574 54.2791 71.3858 54.2295L77.2767 52.2947C77.8556 49.7541 76.8979 44.7281 75.5215 42.5131C75.9748 43.1098 78.071 44.9061 78.3914 44.2292C78.7119 43.5524 78.5665 41.431 78.9654 40.797C79.469 39.9968 77.2502 37.2498 78.1945 37.1703Z" fill="#2F2E41"/>
</g>
<defs>
<clipPath id="clip0_2_325">
<rect width="324" height="257" fill="white"/>
</clipPath>
</defs>
</svg>
